<?xml version="1.0" ?><svg xmlns="http://www.w3.org/2000/svg" xmlns:xlink="http://www.w3.org/1999/xlink" version="1.1" id="Layer_1" viewBox="0 0 32 32" style="enable-background:new 0 0 32 32;" xml:space="preserve"><style type="text/css">
	.st0{fill:none;stroke:#000000;stroke-linecap:round;stroke-linejoin:round;stroke-miterlimit:10;}
</style><g><path class="st0" d="M29.6,8v18.9c0,2.3-1.8,4.1-4.1,4.1h-19c-2.3,0-4.1-1.8-4.1-4.1V8c0-2.3,1.8-4.1,4.1-4.1h2.8v1.8   c0,0.6,0.5,1.1,1.1,1.1h1.3c0.6,0,1-0.5,1-1.1V3.8h6.4v1.8c0,0.6,0.5,1.1,1.1,1.1h1.3c0.6,0,1.1-0.5,1.1-1.1V3.8h2.8   C27.7,3.8,29.6,5.7,29.6,8z"/><g><path class="st0" d="M12.8,2.1v3.6c0,0.6-0.5,1.1-1,1.1h-1.3c-0.6,0-1.1-0.5-1.1-1.1V2.1C9.3,1.5,9.8,1,10.4,1h1.3    C12.3,1,12.8,1.5,12.8,2.1z"/><path class="st0" d="M22.7,2.1v3.6c0,0.6-0.5,1.1-1.1,1.1h-1.3c-0.6,0-1.1-0.5-1.1-1.1V2.1c0-0.6,0.5-1.1,1.1-1.1h1.3    C22.2,1,22.7,1.5,22.7,2.1z"/></g><g><line class="st0" x1="6.4" y1="12.1" x2="10.2" y2="12.1"/><line class="st0" x1="14.1" y1="12.1" x2="17.9" y2="12.1"/><line class="st0" x1="21.8" y1="12.1" x2="25.6" y2="12.1"/><line class="st0" x1="6.4" y1="16.6" x2="10.2" y2="16.6"/><line class="st0" x1="14.1" y1="16.6" x2="17.9" y2="16.6"/><line class="st0" x1="21.8" y1="16.6" x2="25.6" y2="16.6"/><line class="st0" x1="6.4" y1="21.1" x2="10.2" y2="21.1"/><line class="st0" x1="14.1" y1="21.1" x2="17.9" y2="21.1"/><line class="st0" x1="21.8" y1="21.1" x2="25.6" y2="21.1"/><line class="st0" x1="6.4" y1="25.6" x2="10.2" y2="25.6"/><line class="st0" x1="14.1" y1="25.6" x2="17.9" y2="25.6"/></g></g></svg>